<?xml version="1.0" encoding="UTF-8" standalone="no"?>
<svg
   xmlns:dc="http://purl.org/dc/elements/1.1/"
   xmlns:cc="http://creativecommons.org/ns#"
   xmlns:rdf="http://www.w3.org/1999/02/22-rdf-syntax-ns#"
   xmlns:svg="http://www.w3.org/2000/svg"
   xmlns="http://www.w3.org/2000/svg"
   xmlns:sodipodi="http://sodipodi.sourceforge.net/DTD/sodipodi-0.dtd"
   xmlns:inkscape="http://www.inkscape.org/namespaces/inkscape"
   width="210mm"
   height="297mm"
   viewBox="0 0 210 297"
   version="1.1"
   id="svg2455"
   inkscape:version="1.0.1 (3bc2e813f5, 2020-09-07)"
   sodipodi:docname="bk-drum.svg">
  <defs
     id="defs2449" />
  <sodipodi:namedview
     id="base"
     pagecolor="#ffffff"
     bordercolor="#666666"
     borderopacity="1.0"
     inkscape:pageopacity="0.0"
     inkscape:pageshadow="2"
     inkscape:zoom="0.35"
     inkscape:cx="400"
     inkscape:cy="560"
     inkscape:document-units="mm"
     inkscape:current-layer="layer1"
     inkscape:document-rotation="0"
     showgrid="false"
     inkscape:window-width="1267"
     inkscape:window-height="860"
     inkscape:window-x="100"
     inkscape:window-y="0"
     inkscape:window-maximized="0" />
  <metadata
     id="metadata2452">
    <rdf:RDF>
      <cc:Work
         rdf:about="">
        <dc:format>image/svg+xml</dc:format>
        <dc:type
           rdf:resource="http://purl.org/dc/dcmitype/StillImage" />
        <dc:title />
      </cc:Work>
    </rdf:RDF>
  </metadata>
  <g
     inkscape:label="Layer 1"
     inkscape:groupmode="layer"
     id="layer1">
    <g
       id="g94"
       transform="matrix(1.2893817,0,0,1.4149894,689.86053,-255.84579)">
      <path
         stroke="#000000"
         stroke-width="2.684"
         stroke-linecap="square"
         d="m -379.3941,368.9229 h -3.0493 v -18.3175 l -14.6781,-16.437 h -0.149 v -96.9625 h 0.149 l 19.0977,-18.2668 h 0.1213 v -31.2504 c 0,-2.7313 -2.1199,-4.9435 -4.7298,-4.9435 h -26.4209 v 16.9854 l -14.8288,4.9126 -13.6644,-4.9126 v -16.9854 h -32.5652 v 16.9854 l -13.6672,4.9126 -14.8272,-4.9126 v -16.9854 h -26.4162 c -2.6115,0 -4.7282,2.2121 -4.7282,4.9435 v 31.2504 h 0.0538 l 19.1653,18.2668 v 96.9625 l -14.6797,16.437 v 18.3175 h -3.0524 c -2.7313,0 -4.945,2.2152 -4.945,4.9494 v 11.6226 c 0,2.7282 2.2136,4.9435 4.945,4.9435 h 148.8636 c 2.7344,0 4.9466,-2.2152 4.9466,-4.9435 v -11.6226 c 0,-2.7057 -2.2148,-4.9394 -4.9488,-4.9394 z"
         id="path82" />
      <line
         fill="none"
         stroke="#ffffff"
         stroke-width="2.684"
         stroke-linecap="round"
         x1="-520.37347"
         y1="368.92291"
         x2="-388.3667"
         y2="368.92291"
         id="line84" />
      <line
         fill="none"
         stroke="#ffffff"
         stroke-width="2.684"
         stroke-linecap="round"
         x1="-519.7915"
         y1="350.61261"
         x2="-388.94559"
         y2="350.61261"
         id="line86" />
      <line
         fill="none"
         stroke="#ffffff"
         stroke-width="2.684"
         stroke-linecap="round"
         x1="-402.90161"
         y1="334.19009"
         x2="-506.99631"
         y2="334.19009"
         id="line88" />
      <line
         fill="none"
         stroke="#ffffff"
         stroke-width="2.684"
         stroke-linecap="round"
         x1="-506.41739"
         y1="237.22749"
         x2="-402.31961"
         y2="237.22749"
         id="line90" />
      <line
         fill="none"
         stroke="#ffffff"
         stroke-width="2.684"
         stroke-linecap="round"
         x1="-523.28052"
         y1="218.94881"
         x2="-381.9707"
         y2="218.94881"
         id="line92" />
    </g>
  </g>
</svg>
