<?xml version="1.0" encoding="UTF-8" standalone="no"?>
<svg
   xmlns:dc="http://purl.org/dc/elements/1.1/"
   xmlns:cc="http://creativecommons.org/ns#"
   xmlns:rdf="http://www.w3.org/1999/02/22-rdf-syntax-ns#"
   xmlns:svg="http://www.w3.org/2000/svg"
   xmlns="http://www.w3.org/2000/svg"
   xmlns:sodipodi="http://sodipodi.sourceforge.net/DTD/sodipodi-0.dtd"
   xmlns:inkscape="http://www.inkscape.org/namespaces/inkscape"
   width="210mm"
   height="297mm"
   viewBox="0 0 210 297"
   version="1.1"
   id="svg3670"
   inkscape:version="1.0.1 (3bc2e813f5, 2020-09-07)"
   sodipodi:docname="bk-elf.svg">
  <defs
     id="defs3664" />
  <sodipodi:namedview
     id="base"
     pagecolor="#ffffff"
     bordercolor="#666666"
     borderopacity="1.0"
     inkscape:pageopacity="0.0"
     inkscape:pageshadow="2"
     inkscape:zoom="0.35"
     inkscape:cx="400"
     inkscape:cy="560"
     inkscape:document-units="mm"
     inkscape:current-layer="layer1"
     inkscape:document-rotation="0"
     showgrid="false"
     inkscape:window-width="1267"
     inkscape:window-height="860"
     inkscape:window-x="150"
     inkscape:window-y="0"
     inkscape:window-maximized="0" />
  <metadata
     id="metadata3667">
    <rdf:RDF>
      <cc:Work
         rdf:about="">
        <dc:format>image/svg+xml</dc:format>
        <dc:type
           rdf:resource="http://purl.org/dc/dcmitype/StillImage" />
        <dc:title />
      </cc:Work>
    </rdf:RDF>
  </metadata>
  <g
     inkscape:label="Layer 1"
     inkscape:groupmode="layer"
     id="layer1">
    <path
       fill="#20201e"
       d="m 209.27383,277.80963 c -1.76446,-1.42221 -17.65662,-24.48543 -32.39473,-24.48543 -7.66332,0 -13.67267,3.41457 -18.97005,6.42984 -5.37452,3.05612 -10.44848,5.94092 -17.7931,5.94092 -8.56003,0 -15.66597,-3.85881 -21.93861,-7.26105 -5.05726,-2.73824 -9.42488,-5.10971 -13.89475,-5.10971 -4.466703,0 -8.834633,2.37147 -13.891891,5.10971 -6.269861,3.40238 -13.377407,7.26105 -21.93715,7.26105 -7.345975,0 -12.419933,-2.88496 -17.793107,-5.94092 -5.298825,-3.01538 -11.306733,-6.42984 -18.968632,-6.42984 -14.741784,0 -30.6345698,23.06297 -32.39748971,24.48543 0,0 6.41624101,-5.92885 12.38687571,-5.92885 5.97208,0 11.143741,6.18543 20.011514,6.18543 4.548428,0 8.255218,2.10668 12.951104,4.77554 5.948647,3.3861 13.349755,7.59112 23.81062,7.59112 11.541298,0 20.888968,-5.06886 27.714898,-8.76901 3.106657,-1.68687 6.627268,-3.59805 8.114518,-3.59805 1.4926,0 5.01037,1.91103 8.11701,3.59805 6.82727,3.6999 16.1736,8.76901 27.71634,8.76901 10.45837,0 17.86224,-4.20502 23.81063,-7.59112 4.69309,-2.66901 8.40124,-4.77554 12.95256,-4.77554 8.8663,0 15.5859,-6.18543 20.00862,-6.18543 4.42272,0 12.45953,5.92498 12.45953,5.92498 z"
       id="path108"
       style="stroke-width:1.09134" />
    <path
       fill="#ffffff"
       stroke="#20201e"
       stroke-width="4.53145"
       d="m 160.59425,136.31809 c 0,-39.032196 -22.55116,-100.905013 -39.81107,-109.270956 -0.60009,-0.291237 -1.21812,-0.535805 -1.85276,-0.731449 3.01001,-1.648265 5.16233,-5.912493 5.16233,-10.932579 0,-6.4424823 -3.53841,-11.661873 -7.89637,-11.661873 -4.35937,0 -7.9006,5.219943 -7.9006,11.661873 0,4.476313 1.71335,8.353511 4.21734,10.313365 -3.53842,0.338355 -7.36126,1.697087 -11.29973,4.04006 -2.512127,-1.687014 -5.011699,-2.895117 -7.474312,-3.55734 2.880361,-1.737793 4.914011,-5.918709 4.914011,-10.796085 0,-6.4424823 -3.53444,-11.661873 -7.896358,-11.661873 -4.361904,0 -7.896375,5.219943 -7.896375,11.661873 0,4.549398 1.76858,8.485746 4.342687,10.4067 -1.336804,0.218052 -2.652853,0.627486 -3.939822,1.257027 -17.219265,8.367696 -39.268592,67.950171 -39.268592,109.271007 0,32.95287 9.040111,61.34088 19.47494,81.8906 1.553328,6.09196 3.914966,6.27085 4.42558,7.02481 0.0014,0 0.0031,-0.004 0.0047,-0.004 -0.0093,0.10164 -2.067889,19.86048 -2.269314,24.32229 -0.310355,6.87805 -0.779399,15.00327 -0.779399,15.00327 11.385297,7.39596 23.860379,11.69066 37.412334,11.69066 13.55513,0 25.41517,-4.71036 36.79652,-12.10204 -0.40557,-5.49699 -0.87046,-10.98972 -1.80164,-19.24096 -0.48555,-4.31532 -2.15762,-19.68106 -2.15762,-19.68106 0.50767,-0.74579 3.57847,-6.43411 3.57847,-6.43411 11.07514,-20.65425 21.89595,-48.19314 21.89595,-82.44977 z"
       id="path110" />
    <path
       stroke="#000000"
       stroke-width="1.82963"
       d="m 68.179281,225.23541 c 9.233272,-5.87591 19.850122,-11.02632 33.606799,-11.02632 13.75259,0 24.36524,5.1464 33.59822,11.01382 0.50631,-0.74563 1.71335,-2.65675 4.20627,-7.81142 -7.7681,-12.41589 -19.0735,-19.23713 -37.56768,-19.23713 -19.732957,0 -30.50455,7.60363 -38.271333,20.03578 1.582146,6.0502 3.955372,6.25882 4.463921,7.00987 z"
       id="path112" />
    <path
       fill="#ffffff"
       stroke="#000000"
       stroke-width="3.47985"
       stroke-linejoin="bevel"
       d="m 138.75488,264.12359 c -11.38673,-7.38747 -23.0314,-11.05073 -36.58455,-11.05073 -13.553166,0 -26.240065,4.07479 -37.62429,11.46236 11.383868,7.39594 23.858933,11.6907 37.41235,11.6907 13.56134,0 25.42752,-4.71502 36.81339,-12.10048 z"
       id="path114" />
    <path
       stroke="#000000"
       stroke-width="1.82963"
       d="m 138.44407,218.76787 c 7.17084,-17.70081 16.6053,-51.08472 4.81596,-107.8982 C 133.36867,63.202406 104.22592,16.690811 83.027838,27.026281 64.226162,36.194652 43.75926,101.85279 43.75926,136.29729 c 0,32.95288 9.037238,61.34087 19.470715,81.89061 l 75.237275,0.54241 z"
       id="path116" />
    <ellipse
       stroke="#000000"
       stroke-width="1.82963"
       cx="90.527267"
       cy="15.355523"
       id="circle118"
       rx="7.897181"
       ry="11.663073" />
    <path
       stroke="#000000"
       stroke-width="1.82963"
       stroke-linejoin="bevel"
       d="m 134.8559,225.1936 -0.003,-0.01 c -9.23329,-5.86366 -19.85408,-10.77763 -33.59827,-10.77763 -13.755197,0 -24.362353,4.91817 -33.598235,10.78985 0,0 -2.069333,19.85634 -2.270665,24.33014 -0.310355,6.87804 -0.778047,15.00327 -0.778047,15.00327 11.382423,-7.38747 24.072833,-11.46242 37.621407,-11.46242 13.29317,0 25.36261,3.92814 36.58456,11.05073 -0.40422,-5.49699 -0.87047,-10.98971 -1.80029,-19.24097 -0.50855,-4.33943 -2.17547,-19.73618 -2.17547,-19.73618 z"
       id="path120" />
    <path
       fill="none"
       stroke="#ffffff"
       stroke-width="1.82963"
       stroke-linecap="round"
       stroke-linejoin="bevel"
       d="m 134.5169,251.81447 c -10.23485,-4.69407 -21.16198,-7.27363 -32.43709,-7.27363 -11.466652,0 -23.185684,2.75863 -33.697115,7.63199"
       id="path122" />
    <g
       id="g128"
       transform="matrix(0.89802943,0,0,1.3262684,74.666832,-233.05333)">
      <path
         fill="none"
         stroke="#ffffff"
         stroke-width="1.6765"
         stroke-linecap="round"
         d="m -4.55,344.1631 c 9.5229,-3.8344 20.442,-6.9529 34.1665,-6.9529 13.7978,0 24.7553,3.1524 34.3144,7.0111"
         id="path124" />
      <path
         fill="none"
         stroke="#ffffff"
         stroke-width="1.6765"
         stroke-linecap="round"
         d="M 70.1382,337.3991 C 58.05,327.7306 48.3767,325.1404 30.4755,325.1404 c -14.993,0 -30.4639,3.9694 -37.8758,10.7593"
         id="path126" />
    </g>
    <polygon
       fill="#ffffff"
       stroke="#000000"
       stroke-width="1.6765"
       points="18.3535,266.266 -2.4736,266.266 -6.5949,262.1446 -14.9006,270.4503 -6.5949,278.756 -2.4106,274.6031 18.3535,274.6031 18.3535,297.3808 14.2007,301.5336 22.5064,309.8393 30.8121,301.5336 26.6907,297.4123 26.6907,274.6031 47.329,274.6031 51.4818,278.756 59.7875,270.4503 51.4818,262.1446 47.3919,266.266 26.6907,266.266 26.6907,247.5782 30.8121,243.4568 22.5064,235.1512 14.2007,243.4568 18.3535,247.6096 "
       id="polygon130"
       transform="matrix(0.89802943,0,0,1.3262684,74.666832,-233.05333)" />
  </g>
</svg>
