<?xml version="1.0" encoding="UTF-8" standalone="no"?>
<svg
   xmlns:dc="http://purl.org/dc/elements/1.1/"
   xmlns:cc="http://creativecommons.org/ns#"
   xmlns:rdf="http://www.w3.org/1999/02/22-rdf-syntax-ns#"
   xmlns:svg="http://www.w3.org/2000/svg"
   xmlns="http://www.w3.org/2000/svg"
   xmlns:sodipodi="http://sodipodi.sourceforge.net/DTD/sodipodi-0.dtd"
   xmlns:inkscape="http://www.inkscape.org/namespaces/inkscape"
   width="210mm"
   height="297mm"
   viewBox="0 0 210 297"
   version="1.1"
   id="svg1215"
   inkscape:version="1.0.1 (3bc2e813f5, 2020-09-07)"
   sodipodi:docname="bk-horse.svg">
  <defs
     id="defs1209" />
  <sodipodi:namedview
     id="base"
     pagecolor="#ffffff"
     bordercolor="#666666"
     borderopacity="1.0"
     inkscape:pageopacity="0.0"
     inkscape:pageshadow="2"
     inkscape:zoom="0.35"
     inkscape:cx="396.85039"
     inkscape:cy="561.25984"
     inkscape:document-units="mm"
     inkscape:current-layer="layer1"
     inkscape:document-rotation="0"
     showgrid="false"
     inkscape:window-width="1267"
     inkscape:window-height="860"
     inkscape:window-x="25"
     inkscape:window-y="0"
     inkscape:window-maximized="0" />
  <metadata
     id="metadata1212">
    <rdf:RDF>
      <cc:Work
         rdf:about="">
        <dc:format>image/svg+xml</dc:format>
        <dc:type
           rdf:resource="http://purl.org/dc/dcmitype/StillImage" />
        <dc:title />
      </cc:Work>
    </rdf:RDF>
  </metadata>
  <g
     inkscape:label="Layer 1"
     inkscape:groupmode="layer"
     id="layer1">
    <path
       fill="#20201e"
       stroke="#20201e"
       stroke-width="3.19667"
       d="m 157.34294,36.348077 c 0,0 -3.38314,-27.4472334 -3.38314,-31.2807163 0,-3.826348 -2.53419,-4.46469949 -5.07161,0.6428869 -2.53731,5.1077524 -13.9504,29.9988704 -13.9504,29.9988704 l 22.38314,0.598583 z"
       id="path244" />
    <path
       fill="#20201e"
       stroke="#20201e"
       stroke-width="3.19667"
       d="m 5.6712838,246.89617 c 1.1480253,-12.3783 2.7143994,-24.17639 4.6217672,-35.39907 l 6.127267,-3.69138 -4.091759,-7.38284 c 2.331724,-11.86993 5.04021,-23.03872 8.015252,-33.53986 l 5.795187,-2.47746 -2.863282,-7.39854 C 26.38927,147.01636 29.735162,137.7 33.207254,129.02481 l 5.403699,-1.63893 -1.937128,-6.73774 c 3.892376,-9.06873 7.891752,-17.35131 11.861286,-24.868933 l 5.719305,-0.946383 -1.527704,-6.726171 c 4.639802,-8.230314 9.16337,-15.390848 13.348763,-21.507815 l 5.723859,-0.485636 -0.999147,-6.188929 C 81.005844,45.981484 88.216976,39.196351 88.216976,39.196351 l 12.964834,5.955512 c 0,0 6.19869,-5.107862 11.2733,-10.211079 0,0 3.38001,-17.02055 4.50711,-26.3842 1.12865,-9.35889346 4.50865,-5.1031615 5.63575,-2.551636 1.13018,2.551636 12.82486,22.128413 12.82486,22.128413 0,0 6.99548,-1.449995 11.97588,0 7.32577,2.129056 10.71033,9.574774 19.16654,21.703453 6.16604,8.841786 9.86474,16.597914 11.97743,24.891008 2.11282,8.297629 -0.41992,8.297629 0.42132,15.954749 0.84872,7.661768 23.67675,65.102729 26.21086,72.124099 2.54176,7.01855 8.66291,28.49693 -3.38001,42.12522 -3.38002,3.83526 -5.92179,5.74594 -8.03172,7.02325 0,0 -3.38313,-1.27703 -4.64864,-3.82634 -0.2264,-0.45853 -0.34254,-0.73748 -0.39759,-0.89025 -0.0418,-0.17975 -0.0627,-0.17975 0,0 0.12967,0.49892 0.42438,2.36513 -0.87256,4.71643 -2.11287,3.83524 -4.82881,3.54758 -6.3432,3.83524 -2.25285,0.4226 -6.3387,-2.55838 -9.7218,-10.2156 -3.38456,-7.66586 -5.49735,-10.21562 -8.03318,-14.68441 -2.53432,-4.46487 -16.5263,-14.3521 -21.98515,-28.08354 -1.26715,-3.1833 -4.22561,-1.91102 -6.33865,0.64067 -2.11288,2.55606 -13.95196,3.19458 -19.0235,-9.57477 0,0 -2.39733,33.57349 7.61028,56.80615 16.48483,38.29461 44.38514,47.86475 52.84435,83.61603 H 3.4238881 c 0,-12.35568 0.4302698,-24.20775 1.2120002,-35.61494 l 5.7623287,-4.59961 -4.8242497,-7.18249 z"
       id="path246" />
    <path
       fill="none"
       stroke="#ffffff"
       stroke-width="3.19667"
       d="m 94.981263,53.659732 c 0,0 -73.836917,83.408938 -73.836917,234.033838"
       id="path248" />
    <path
       fill="none"
       stroke="#20201e"
       stroke-width="3.19667"
       d="m 188.72202,206.24146 c -0.0608,-0.13824 -0.0608,-0.13824 0,0 z"
       id="path250" />
    <path
       fill="none"
       stroke="#ffffff"
       stroke-width="3.19667"
       d="m 110.19813,111.53389 c -1.40709,23.8256 5.9218,40.84394 6.20172,42.3342 0,0 -17.757701,-13.82348 -19.44919,-32.12776"
       id="path252" />
    <path
       fill="none"
       stroke="#ffffff"
       stroke-width="3.19667"
       d="m 116.38849,153.84613 c 0,0 -11.83744,8.72718 -20.573536,3.19458"
       id="path254" />
    <path
       fill="none"
       stroke="#20201e"
       stroke-width="3.19667"
       d="m 189.11848,207.16222 c 0,0 -7.8932,-15.32773 -10.15048,-22.34634"
       id="path256" />
    <path
       fill="none"
       stroke="#ffffff"
       stroke-width="3.19667"
       d="m 140.47943,65.768611 c 0,0 12.99893,0.099 17.3335,10.847439 5.91867,14.684574 -0.84425,16.595701 -0.84425,16.595701 0,0 -6.76465,3.196791 -11.41475,-6.379919 C 140.6031,76.638728 144.70815,70.23613 144.70815,70.23613 l -4.20829,-4.466026 z"
       id="path258" />
    <path
       fill="none"
       stroke="#ffffff"
       stroke-width="3.19667"
       d="m 203.48152,173.96628 c -4.65172,-1.91095 -7.61029,-1.2814 -9.72023,0.64305 0,0 2.10994,-9.57936 -1.69006,-17.87699 -3.80875,-8.29762 -10.15049,-8.93393 -15.64347,-24.891"
       id="path260" />
    <line
       fill="none"
       stroke="#ffffff"
       stroke-width="3.19667"
       x1="80.038864"
       y1="74.746826"
       x2="72.018684"
       y2="67.057838"
       id="line262" />
    <line
       fill="none"
       stroke="#ffffff"
       stroke-width="3.19667"
       x1="63.553394"
       y1="102.18758"
       x2="55.521084"
       y2="96.43235"
       id="line264" />
    <line
       fill="none"
       stroke="#ffffff"
       stroke-width="3.19667"
       x1="48.760372"
       y1="134.00215"
       x2="39.459473"
       y2="128.24699"
       id="line266" />
    <line
       fill="none"
       stroke="#ffffff"
       stroke-width="3.19667"
       x1="36.916248"
       y1="170.46718"
       x2="27.200565"
       y2="165.35651"
       id="line268" />
    <line
       fill="none"
       stroke="#ffffff"
       stroke-width="3.19667"
       x1="27.621433"
       y1="213.23985"
       x2="17.472776"
       y2="208.77371"
       id="line270" />
    <line
       fill="none"
       stroke="#ffffff"
       stroke-width="3.19667"
       x1="22.123226"
       y1="256.6109"
       x2="11.556828"
       y2="254.72314"
       id="line272" />
  </g>
</svg>
