<?xml version="1.0" encoding="UTF-8" standalone="no"?>
<svg
   xmlns:dc="http://purl.org/dc/elements/1.1/"
   xmlns:cc="http://creativecommons.org/ns#"
   xmlns:rdf="http://www.w3.org/1999/02/22-rdf-syntax-ns#"
   xmlns:svg="http://www.w3.org/2000/svg"
   xmlns="http://www.w3.org/2000/svg"
   xmlns:sodipodi="http://sodipodi.sourceforge.net/DTD/sodipodi-0.dtd"
   xmlns:inkscape="http://www.inkscape.org/namespaces/inkscape"
   width="210mm"
   height="297mm"
   viewBox="0 0 210 297"
   version="1.1"
   id="svg6138"
   inkscape:version="1.0.1 (3bc2e813f5, 2020-09-07)"
   sodipodi:docname="bk-queen.svg">
  <defs
     id="defs6132" />
  <sodipodi:namedview
     id="base"
     pagecolor="#ffffff"
     bordercolor="#666666"
     borderopacity="1.0"
     inkscape:pageopacity="0.0"
     inkscape:pageshadow="2"
     inkscape:zoom="0.35"
     inkscape:cx="400"
     inkscape:cy="560"
     inkscape:document-units="mm"
     inkscape:current-layer="layer1"
     inkscape:document-rotation="0"
     showgrid="false"
     inkscape:window-width="1267"
     inkscape:window-height="860"
     inkscape:window-x="50"
     inkscape:window-y="0"
     inkscape:window-maximized="0" />
  <metadata
     id="metadata6135">
    <rdf:RDF>
      <cc:Work
         rdf:about="">
        <dc:format>image/svg+xml</dc:format>
        <dc:type
           rdf:resource="http://purl.org/dc/dcmitype/StillImage" />
        <dc:title />
      </cc:Work>
    </rdf:RDF>
  </metadata>
  <g
     inkscape:label="Layer 1"
     inkscape:groupmode="layer"
     id="layer1">
    <path
       stroke="#000000"
       stroke-width="3.1553"
       stroke-linejoin="bevel"
       d="m 205.8476,80.166376 c 2.47831,-6.854463 1.04708,-15.647824 -3.20677,-19.64355 -4.24516,-3.997925 -9.70279,-1.687178 -12.18377,5.164748 -2.12833,5.873315 -1.37148,13.160543 1.56207,17.642276 -12.13829,23.7126 -34.28794,66.96706 -39.64035,77.45538 -1.57073,-1.12785 -3.19827,-2.20302 -4.88827,-3.20927 0.47799,-8.03951 3.98642,-69.441256 5.85004,-102.093856 4.04326,0.14889 7.7707,-4.165268 8.82926,-10.746921 1.232,-7.679442 -1.63033,-15.512689 -6.39347,-17.502345 -4.76877,-1.985143 -9.62881,2.627158 -10.86349,10.304173 -1.0557,6.576916 0.90195,13.263814 4.48436,16.301455 -8.77798,32.093499 -25.81033,94.398954 -25.85285,94.657274 -0.007,0.062 -0.003,0.12634 -0.0104,0.18782 -1.54789,-0.30006 -3.13861,-0.5595 -4.75459,-0.77478 -0.32448,-3.45236 -7.62855,-75.675987 -11.43843,-113.291025 4.37637,-1.648205 7.63994,-7.959192 7.63994,-15.515002 0,-8.814172 -4.43316,-15.9596092 -9.90477,-15.9596092 -5.466064,0 -9.901815,7.1456062 -9.901815,15.9596092 0,7.55581 3.266526,13.866627 7.642535,15.515002 -3.790147,37.444199 -11.048612,109.178325 -11.429711,113.229995 -1.695821,0.21545 -3.348955,0.48166 -4.968086,0.78166 -0.01183,-0.0897 -0.0089,-0.16525 -0.02559,-0.24986 -0.03979,-0.25662 -17.07526,-62.568002 -25.847295,-94.661894 3.579366,-3.02828 5.537102,-9.717377 4.481499,-16.299087 -1.234881,-7.675042 -6.09776,-12.28723 -10.863582,-10.299548 -4.76026,1.98757 -7.625582,9.823073 -6.390785,17.497663 1.058462,6.583628 4.783044,10.895876 8.826396,10.744722 1.860856,32.618759 5.357881,93.892024 5.850029,102.065654 -1.661742,0.9697 -3.255137,2.01504 -4.802858,3.11079 -5.5626,-10.8957 -27.466284,-53.67594 -39.517805,-77.201795 2.939229,-4.481621 3.698927,-11.76902 1.570703,-17.642275 -2.4783,-6.852096 -7.938616,-9.162901 -12.1896025,-5.164806 -4.2481184,3.995726 -5.6822149,12.789255 -3.2009542,19.643607 2.125448,5.866094 6.4392267,8.392406 10.3059657,6.473759 7.247174,30.4132 30.64006,128.30033 31.534509,129.64786 h 0.0084 c 0.01716,0.16969 2.316141,24.4506 2.569433,32.50145 0.253203,8.00934 -1.909295,27.60516 -1.752779,27.71978 v 0.0173 c 0.0028,0 0.0056,-0.0121 0.0084,-0.0121 17.348193,13.0896 37.105404,20.44834 58.293563,20.44834 21.38572,0 59.9893,-21.07186 59.80872,-21.20931 -2.52387,-8.58264 -1.57063,-59.4788 -1.57063,-59.4788 0.89342,-1.3617 24.59252,-98.42718 32.02991,-129.638394 3.8168,1.924852 8.12909,-0.610372 10.25602,-6.478891"
       id="path52" />
    <g
       id="g58"
       transform="matrix(0.92612085,0,0,1.4922753,-366.61009,-277.64522)">
      <path
         stroke="#ffffff"
         stroke-width="2.9123"
         stroke-linecap="round"
         d="m 451.2241,367.4442 c 19.6967,-8.1172 38.1338,-11.6012 60.7258,-11.6012 21.6971,0 39.065,3.5916 57.2242,11.1158"
         id="path54" />
      <path
         stroke="#ffffff"
         stroke-width="2.9123"
         stroke-linecap="round"
         d="m 565.4272,329.408 c -16.0224,-6.1569 -35.6515,-9.7793 -56.8561,-9.7793 -21.396,0 -41.1823,3.6869 -57.2809,9.9423"
         id="path56" />
    </g>
    <path
       fill="none"
       stroke="#ffffff"
       stroke-width="3.42368"
       stroke-linecap="round"
       d="m 158.82115,253.92216 c -16.42337,-8.74322 -33.1429,-15.08868 -51.96798,-15.08868 -19.180712,0 -37.664882,6.52854 -54.995372,15.58828"
       id="path60" />
    <polygon
       fill="#ffffff"
       points="509.3953,329.8484 500.4604,334.3159 509.3953,338.7834 518.3616,334.3159 "
       id="polygon62"
       transform="matrix(0.92612085,0,0,1.4922753,-366.61009,-277.64522)" />
    <polygon
       fill="#ffffff"
       points="546.8023,334.2844 554.9191,340.1362 545.3865,343.1249 537.2697,337.2732 "
       id="polygon64"
       transform="matrix(0.92612085,0,0,1.4922753,-366.61009,-277.64522)" />
    <polygon
       fill="#ffffff"
       points="472.0197,334.2844 463.9028,340.1362 473.4355,343.1249 481.5524,337.2732 "
       id="polygon66"
       transform="matrix(0.92612085,0,0,1.4922753,-366.61009,-277.64522)" />
  </g>
</svg>
