<?xml version="1.0" encoding="UTF-8" standalone="no"?>
<svg
   xmlns:dc="http://purl.org/dc/elements/1.1/"
   xmlns:cc="http://creativecommons.org/ns#"
   xmlns:rdf="http://www.w3.org/1999/02/22-rdf-syntax-ns#"
   xmlns:svg="http://www.w3.org/2000/svg"
   xmlns="http://www.w3.org/2000/svg"
   xmlns:sodipodi="http://sodipodi.sourceforge.net/DTD/sodipodi-0.dtd"
   xmlns:inkscape="http://www.inkscape.org/namespaces/inkscape"
   width="210mm"
   height="297mm"
   viewBox="0 0 210 297"
   version="1.1"
   id="svg6736"
   inkscape:version="1.0.1 (3bc2e813f5, 2020-09-07)"
   sodipodi:docname="bk-sold.svg">
  <defs
     id="defs6730" />
  <sodipodi:namedview
     id="base"
     pagecolor="#ffffff"
     bordercolor="#666666"
     borderopacity="1.0"
     inkscape:pageopacity="0.0"
     inkscape:pageshadow="2"
     inkscape:zoom="0.35"
     inkscape:cx="400"
     inkscape:cy="560"
     inkscape:document-units="mm"
     inkscape:current-layer="layer1"
     inkscape:document-rotation="0"
     showgrid="false"
     inkscape:window-width="1267"
     inkscape:window-height="860"
     inkscape:window-x="75"
     inkscape:window-y="0"
     inkscape:window-maximized="0" />
  <metadata
     id="metadata6733">
    <rdf:RDF>
      <cc:Work
         rdf:about="">
        <dc:format>image/svg+xml</dc:format>
        <dc:type
           rdf:resource="http://purl.org/dc/dcmitype/StillImage" />
        <dc:title />
      </cc:Work>
    </rdf:RDF>
  </metadata>
  <g
     inkscape:label="Layer 1"
     inkscape:groupmode="layer"
     id="layer1">
    <path
       stroke="#000000"
       stroke-width="3.85"
       stroke-linejoin="round"
       d="m 145.89529,252.50736 c -18.90889,-35.09465 -16.99824,-97.6097 -15.41751,-121.83175 29.90475,-1.91743 51.41217,-7.212 51.41217,-13.45231 0,-6.12529 -20.70158,-11.34357 -49.73954,-13.34624 18.54446,-8.935962 31.23422,-26.998919 31.23422,-47.845537 0,-29.722322 -25.75854,-53.8137212 -57.54874,-53.8137212 -31.790178,0 -57.548732,24.0919652 -57.548732,53.8137212 0,20.84622 12.694717,38.909008 31.234025,47.845537 -29.033129,2.00267 -49.744149,7.22078 -49.744149,13.34624 0,6.24031 21.518969,11.53488 51.417257,13.45231 1.585601,24.22534 3.496073,86.73845 -15.412659,121.83175 -37.059687,6.96529 -63.0650612,23.31833 -63.0650612,42.36413 H 208.9501 c 0,-19.0458 -25.96839,-35.40439 -63.02967,-42.38168 z"
       id="path210" />
  </g>
</svg>
