<?xml version="1.0" encoding="UTF-8" standalone="no"?>
<svg
   xmlns:dc="http://purl.org/dc/elements/1.1/"
   xmlns:cc="http://creativecommons.org/ns#"
   xmlns:rdf="http://www.w3.org/1999/02/22-rdf-syntax-ns#"
   xmlns:svg="http://www.w3.org/2000/svg"
   xmlns="http://www.w3.org/2000/svg"
   xmlns:sodipodi="http://sodipodi.sourceforge.net/DTD/sodipodi-0.dtd"
   xmlns:inkscape="http://www.inkscape.org/namespaces/inkscape"
   width="210mm"
   height="297mm"
   viewBox="0 0 210 297"
   version="1.1"
   id="svg3059"
   inkscape:version="1.0.1 (3bc2e813f5, 2020-09-07)"
   sodipodi:docname="wh-elf.svg">
  <defs
     id="defs3053" />
  <sodipodi:namedview
     id="base"
     pagecolor="#ffffff"
     bordercolor="#666666"
     borderopacity="1.0"
     inkscape:pageopacity="0.0"
     inkscape:pageshadow="2"
     inkscape:zoom="0.35"
     inkscape:cx="400"
     inkscape:cy="560"
     inkscape:document-units="mm"
     inkscape:current-layer="layer1"
     inkscape:document-rotation="0"
     showgrid="false"
     inkscape:window-width="1267"
     inkscape:window-height="860"
     inkscape:window-x="125"
     inkscape:window-y="0"
     inkscape:window-maximized="0" />
  <metadata
     id="metadata3056">
    <rdf:RDF>
      <cc:Work
         rdf:about="">
        <dc:format>image/svg+xml</dc:format>
        <dc:type
           rdf:resource="http://purl.org/dc/dcmitype/StillImage" />
        <dc:title />
      </cc:Work>
    </rdf:RDF>
  </metadata>
  <g
     inkscape:label="Layer 1"
     inkscape:groupmode="layer"
     id="layer1">
    <path
       fill="#ffffff"
       stroke="#20201e"
       stroke-width="4.36823"
       stroke-linecap="round"
       stroke-linejoin="round"
       d="m 198.01021,279.05464 c -1.63229,-1.4264 -16.33428,-24.59293 -29.97123,-24.59293 -7.0881,0 -12.64741,3.43203 -17.54938,6.45657 -4.97103,3.0698 -9.66492,5.96958 -16.45951,5.96958 -7.91896,0 -14.49271,-3.87402 -20.29695,-7.29194 -4.67741,-2.75462 -8.71905,-5.13471 -12.85284,-5.13471 -4.132194,0 -8.171676,2.38009 -12.850272,5.13471 -5.800317,3.41762 -12.375578,7.29194 -20.295613,7.29194 -6.794584,0 -11.489797,-2.89993 -16.46058,-5.96958 -4.901994,-3.02479 -10.461048,-6.45657 -17.550475,-6.45657 -13.635108,0 -28.3376818,23.16626 -29.9686611,24.59293 0,0 6.2571541,-5.95321 11.4592231,-5.95321 5.202071,0 10.307939,6.211 18.510187,6.211 4.210121,0 7.639316,2.11807 11.983777,4.80098 5.503144,3.39729 12.351314,7.62516 22.027443,7.62516 10.675637,0 19.324601,-5.09155 25.639329,-8.81002 2.875316,-1.69654 6.130973,-3.61612 7.506802,-3.61612 1.38085,0 4.63515,1.91958 7.50913,3.61612 6.31474,3.71847 14.96236,8.81002 25.64067,8.81002 9.67381,0 16.52321,-4.22817 22.02744,-7.62516 4.3403,-2.68291 7.77208,-4.80098 11.98118,-4.80098 8.20361,0 11.58676,-6.211 18.51153,-6.211 6.97861,0 11.52644,5.95149 11.52644,5.95149 z"
       id="path132" />
    <path
       fill="#ffffff"
       stroke="#20201e"
       stroke-width="4.36823"
       d="m 115.91402,27.177917 c -0.55389,-0.290669 -1.12686,-0.536201 -1.71014,-0.732571 2.78202,-1.657661 4.7718,-5.93897 4.7718,-10.9815 0,-6.4713222 -3.26978,-11.7140816 -7.30501,-11.7140816 -4.03526,0 -7.30636,5.2432945 -7.30636,11.7140816 0,4.496318 1.57999,8.390889 3.89883,10.3595 -20.968349,2.183605 -52.799287,46.476637 -53.813415,121.470454 -0.403257,29.79717 1.952657,54.18852 8.442264,71.90485 l 70.159451,-0.80226 c 10.25699,-20.75162 19.68956,-47.01725 19.68956,-81.45663 0,-45.818655 -20.85731,-101.38599 -36.82698,-109.793673 z"
       id="path134" />
    <path
       fill="#ffffff"
       stroke="#20201e"
       stroke-width="4.36823"
       d="M 136.92817,111.40084 C 129.21465,71.039737 108.85185,31.52851 90.895787,26.310384 c 2.668536,-1.745582 4.547336,-5.945232 4.547336,-10.844417 0,-6.4713138 -3.269768,-11.7140721 -7.305013,-11.7140721 -4.034253,0 -7.306346,5.2432934 -7.306346,11.7140721 0,4.569742 1.637374,8.523729 4.020124,10.45342 -1.239187,0.21687 -2.455443,0.630268 -3.644779,1.260535 -15.929713,8.407145 -36.330332,64.88879 -36.330332,109.764368 0,33.10025 8.363091,61.61546 18.015126,82.25728 l 70.159437,-0.80226 c 6.63875,-17.77079 14.7674,-49.95952 3.86828,-107.00641 z"
       id="path136" />
    <path
       fill="#ffffff"
       stroke="#000000"
       stroke-width="3.3545"
       stroke-linejoin="bevel"
       d="m 132.82464,265.34932 c -8.81604,-6.48548 -21.30525,-11.10221 -33.839504,-11.10221 -12.539981,0 -24.27885,4.09295 -34.809185,11.51756 10.530005,7.42054 22.073473,11.73673 34.610548,11.73673 12.545721,0 23.523261,-4.73612 34.056411,-12.15449 z"
       id="path138" />
    <path
       fill="#ffffff"
       stroke="#20201e"
       stroke-width="4.36823"
       stroke-linejoin="bevel"
       d="m 129.16548,226.24497 -0.006,-0.0152 c -8.5418,-5.88786 -18.36853,-10.82391 -31.082067,-10.82391 -12.725077,0 -22.537875,4.94019 -31.082075,10.83817 0,0 -1.914355,19.94106 -2.09937,24.44327 -0.288434,6.90297 -0.72103,15.07042 -0.72103,15.07042 10.530001,-7.42477 22.268703,-11.51756 34.809184,-11.51756 12.293738,0 23.459438,3.9436 33.839478,11.10221 -0.37268,-5.52573 -0.80401,-11.04677 -1.6642,-19.33122 -0.47045,-4.40085 -2.01254,-19.82458 -2.01254,-19.82458 z"
       id="path140" />
    <path
       fill="#ffffff"
       stroke="#20201e"
       stroke-width="4.36823"
       stroke-linejoin="bevel"
       d="m 64.162827,265.7683 c 10.53,-7.42478 22.268703,-11.51761 34.809183,-11.51761 12.29373,0 23.45952,3.94359 33.8395,11.1022 -0.26689,-4.62288 -0.9048,-7.50442 -1.30681,-13.40436 -10.43047,-5.8593 -21.00526,-8.84894 -32.694692,-8.84894 -11.821776,0 -23.536052,3.44221 -34.066886,9.42819 -0.05225,5.19718 -0.601148,13.24439 -0.601148,13.24439 z"
       id="path142" />
    <path
       fill="#ffffff"
       stroke="#20201e"
       stroke-width="4.36823"
       d="m 66.985636,226.24497 c 8.543119,-5.89369 18.364888,-10.94072 31.092544,-11.07159 10.83638,-0.1147 22.54176,5.16948 31.08472,11.0632 0.46839,-0.75312 2.45286,-1.7191 3.88995,-7.84642 -7.18371,-12.47144 -17.8646,-18.98553 -34.973842,-18.98553 -18.256388,0 -28.003133,7.29981 -35.185609,19.78762 1.411406,6.11922 3.606897,6.28684 4.077366,7.04124 z"
       id="path144" />
    <line
       fill="none"
       stroke="#000000"
       stroke-width="3.3545"
       x1="98.088623"
       y1="199.42104"
       x2="98.088623"
       y2="215.18021"
       id="line146" />
    <polygon
       fill="#ffffff"
       stroke="#000000"
       stroke-width="2.4221"
       points="15.0501,-3.8573 -5.7455,-3.8573 -9.8669,-7.9787 -18.1726,0.327 -9.8669,8.6326 -5.714,4.4798 15.0501,4.4798 15.0501,27.289 10.8973,31.4418 19.203,39.7475 27.5087,31.4418 23.3873,27.3204 23.3873,4.4798 44.0571,4.4798 48.2099,8.6326 56.5156,0.327 48.2099,-7.9787 44.0886,-3.8573 23.3873,-3.8573 23.3873,-22.5262 27.5087,-26.6476 19.203,-34.947 10.8973,-26.6476 15.0501,-22.4822 "
       id="polygon148"
       transform="matrix(0.83077594,0,0,1.3322052,76.202181,125.76459)" />
  </g>
</svg>
