<?xml version="1.0" encoding="UTF-8" standalone="no"?>
<svg
   xmlns:dc="http://purl.org/dc/elements/1.1/"
   xmlns:cc="http://creativecommons.org/ns#"
   xmlns:rdf="http://www.w3.org/1999/02/22-rdf-syntax-ns#"
   xmlns:svg="http://www.w3.org/2000/svg"
   xmlns="http://www.w3.org/2000/svg"
   xmlns:sodipodi="http://sodipodi.sourceforge.net/DTD/sodipodi-0.dtd"
   xmlns:inkscape="http://www.inkscape.org/namespaces/inkscape"
   width="210mm"
   height="297mm"
   viewBox="0 0 210 297"
   version="1.1"
   id="svg4288"
   inkscape:version="1.0.1 (3bc2e813f5, 2020-09-07)"
   sodipodi:docname="wh-king.svg">
  <defs
     id="defs4282" />
  <sodipodi:namedview
     id="base"
     pagecolor="#ffffff"
     bordercolor="#666666"
     borderopacity="1.0"
     inkscape:pageopacity="0.0"
     inkscape:pageshadow="2"
     inkscape:zoom="0.35"
     inkscape:cx="400"
     inkscape:cy="560"
     inkscape:document-units="mm"
     inkscape:current-layer="layer1"
     inkscape:document-rotation="0"
     showgrid="false"
     inkscape:window-width="1267"
     inkscape:window-height="860"
     inkscape:window-x="157"
     inkscape:window-y="0"
     inkscape:window-maximized="0" />
  <metadata
     id="metadata4285">
    <rdf:RDF>
      <cc:Work
         rdf:about="">
        <dc:format>image/svg+xml</dc:format>
        <dc:type
           rdf:resource="http://purl.org/dc/dcmitype/StillImage" />
        <dc:title />
      </cc:Work>
    </rdf:RDF>
  </metadata>
  <g
     inkscape:label="Layer 1"
     inkscape:groupmode="layer"
     id="layer1">
    <path
       fill="#ffffff"
       stroke="#20201e"
       stroke-width="4.81529"
       d="M 128.67982,2.4529052 H 75.480253 V 82.992597 c 0,11.857207 11.972212,21.480203 26.733007,21.480203 14.77027,0 26.36196,-9.622713 26.36196,-21.480203 0,-1.04835 0.0993,-80.5396918 0.0993,-80.5396918 z"
       id="path26" />
    <rect
       x="75.476883"
       y="2.4529078"
       fill="#ffffff"
       stroke="#20201e"
       stroke-width="4.81529"
       width="53.199566"
       height="69.05587"
       id="rect28" />
    <line
       fill="none"
       stroke="#20201e"
       stroke-width="4.81529"
       x1="75.476883"
       y1="2.4529078"
       x2="128.67986"
       y2="71.503906"
       id="line30" />
    <line
       fill="none"
       stroke="#20201e"
       stroke-width="4.81529"
       x1="128.67986"
       y1="2.4529078"
       x2="75.476883"
       y2="71.503906"
       id="line32" />
    <path
       fill="#ffffff"
       stroke="#20201e"
       stroke-width="4.81529"
       stroke-linejoin="round"
       d="m 170.77952,272.88887 c -20.69859,-14.79547 -43.19669,-22.57405 -67.83867,-22.57405 -24.641851,0 -48.206356,8.29517 -68.909268,23.08816 20.703226,14.7953 43.867545,23.31519 68.506058,23.31519 24.65174,0.046 47.55218,-8.99945 68.23842,-23.79094 z"
       id="path34" />
    <path
       fill="#ffffff"
       stroke="#20201e"
       stroke-width="4.81529"
       stroke-linejoin="bevel"
       d="m 181.12273,222.14777 c 1.18753,-1.50524 2.3654,-3.04551 3.52059,-4.67004 25.01634,-35.25898 30.74758,-85.50846 12.79844,-112.23371 -17.9555,-26.727659 -52.78323,-19.80192 -77.7985,15.45461 -7.47382,10.52983 -13.20849,22.40135 -17.12274,34.58112 C 98.609296,143.09998 92.871692,131.22846 85.400797,120.69863 60.386164,85.4421 25.549193,78.516534 7.6023234,105.24402 -10.351478,131.96927 -4.6217652,182.22224 20.397807,217.47773 c 1.158549,1.62912 2.341251,3.17635 3.536878,4.68178 21.600336,-11.74996 48.903703,-18.7714 78.604815,-18.7714 29.67469,0 56.97009,7.03679 78.54856,18.76471 z"
       id="path36" />
    <path
       fill="#ffffff"
       stroke="#20201e"
       stroke-width="4.81529"
       d="m 102.54097,155.32264 c 3.9146,-12.18222 9.64883,-24.05128 17.12278,-34.57622 6.08957,-8.59201 12.76962,-15.48762 19.64646,-20.63633 -11.40459,-4.646697 -23.78993,-7.196613 -36.74967,-7.196613 -12.966286,0 -25.364944,2.557102 -36.772691,7.211043 6.867147,5.14694 13.54397,12.03719 19.633534,20.62247 7.468251,10.53121 13.185055,22.40274 17.117407,34.5615 z"
       id="path38" />
    <path
       fill="#ffffff"
       stroke="#20201e"
       stroke-width="4.81529"
       stroke-linejoin="bevel"
       d="m 180.82525,222.14777 -0.0112,-0.0288 c -21.58977,-11.73601 -48.8779,-18.74543 -78.55256,-18.74543 -29.700396,0 -57.003137,7.02144 -78.601475,18.7714 0,0 10.360329,11.75466 11.859611,20.43765 1.497393,8.67626 2.139582,21.12031 -1.460212,30.79462 20.700285,-14.79307 44.267525,-23.08822 68.909386,-23.08822 24.17056,0 47.43972,8.30913 67.83867,22.57405 -3.29162,-9.55284 -3.29818,-21.84262 -1.83952,-30.28045 1.48711,-8.61652 11.8633,-20.39217 11.8633,-20.39217 z"
       id="path40" />
    <path
       fill="#ffffff"
       stroke="#20201e"
       stroke-width="4.81529"
       stroke-linejoin="bevel"
       d="m 34.038097,273.41546 c 20.700177,-14.793 44.267417,-23.08815 68.909263,-23.08815 24.17056,0 47.43647,8.30913 67.83866,22.57404 -1.40057,-4.0811 -2.87212,-14.50334 -2.6365,-20.31609 -20.50494,-11.67721 -42.55567,-18.06095 -65.52872,-18.06095 -23.238039,0 -45.523101,6.51641 -66.222754,18.43906 0.264392,10.77055 -0.793128,16.17978 -2.346189,20.39216 z"
       id="path42" />
    <polygon
       points="261.3261,58.4352 271.079,63.3117 280.8004,58.4352 271.079,53.5588 "
       id="polygon44"
       transform="matrix(1.0503598,0,0,1.5215402,-182.05726,130.45976)" />
    <polygon
       points="221.4651,64.7904 231.8472,68.0308 240.6878,61.6443 230.3056,58.4038 "
       id="polygon46"
       transform="matrix(1.0503598,0,0,1.5215402,-182.05726,130.45976)" />
    <polygon
       points="320.6613,64.7904 310.2793,68.0308 301.4388,61.6443 311.8208,58.4038 "
       id="polygon48"
       transform="matrix(1.0503598,0,0,1.5215402,-182.05726,130.45976)" />
    <ellipse
       fill="#ffffff"
       stroke="#20201e"
       stroke-width="4.81529"
       cx="102.54099"
       cy="94.007149"
       rx="18.833164"
       ry="20.144279"
       id="ellipse50" />
  </g>
</svg>
