<?xml version="1.0" encoding="UTF-8" standalone="no"?>
<svg
   xmlns:dc="http://purl.org/dc/elements/1.1/"
   xmlns:cc="http://creativecommons.org/ns#"
   xmlns:rdf="http://www.w3.org/1999/02/22-rdf-syntax-ns#"
   xmlns:svg="http://www.w3.org/2000/svg"
   xmlns="http://www.w3.org/2000/svg"
   xmlns:sodipodi="http://sodipodi.sourceforge.net/DTD/sodipodi-0.dtd"
   xmlns:inkscape="http://www.inkscape.org/namespaces/inkscape"
   width="210mm"
   height="297mm"
   viewBox="0 0 210 297"
   version="1.1"
   id="svg5519"
   inkscape:version="1.0.1 (3bc2e813f5, 2020-09-07)"
   sodipodi:docname="wh-queen.svg">
  <defs
     id="defs5513" />
  <sodipodi:namedview
     id="base"
     pagecolor="#ffffff"
     bordercolor="#666666"
     borderopacity="1.0"
     inkscape:pageopacity="0.0"
     inkscape:pageshadow="2"
     inkscape:zoom="0.33811728"
     inkscape:cx="400"
     inkscape:cy="560"
     inkscape:document-units="mm"
     inkscape:current-layer="layer1"
     inkscape:document-rotation="0"
     showgrid="false"
     inkscape:window-width="1440"
     inkscape:window-height="838"
     inkscape:window-x="-8"
     inkscape:window-y="-8"
     inkscape:window-maximized="1" />
  <metadata
     id="metadata5516">
    <rdf:RDF>
      <cc:Work
         rdf:about="">
        <dc:format>image/svg+xml</dc:format>
        <dc:type
           rdf:resource="http://purl.org/dc/dcmitype/StillImage" />
        <dc:title />
      </cc:Work>
    </rdf:RDF>
  </metadata>
  <g
     inkscape:label="Layer 1"
     inkscape:groupmode="layer"
     id="layer1">
    <path
       fill="#ffffff"
       stroke="#20201e"
       stroke-width="4.11422"
       stroke-linejoin="bevel"
       d="m 166.0049,272.51875 c -17.98035,-13.12799 -37.68645,-20.02091 -59.4416,-20.02091 -21.755255,0 -42.843605,7.52586 -61.415698,20.65602 17.980362,13.11674 38.377021,20.50226 60.135188,20.50226 21.78485,0.0444 42.17678,-8.00703 60.73087,-21.10545 z"
       id="path68" />
    <path
       fill="#ffffff"
       stroke="#20201e"
       stroke-width="4.11422"
       stroke-linejoin="bevel"
       d="m 164.6711,213.59946 -0.0112,-0.0335 c -16.16259,-10.40457 -34.9685,-16.73481 -59.38539,-16.73481 -24.446463,0 -43.347535,6.33435 -59.984074,16.76672 0,0 1.814863,24.0842 1.890033,32.04833 0.08962,8.96974 -1.51668,27.34999 -1.51668,27.34999 18.570766,-13.1302 39.153487,-20.51111 60.908741,-20.51111 21.33791,0 43.0244,6.8384 59.4416,20.02093 -2.69721,-8.42368 -1.33379,-58.87299 -1.33379,-58.87299 z"
       id="path70" />
    <path
       fill="#ffffff"
       stroke="#20201e"
       stroke-width="4.11422"
       stroke-linejoin="bevel"
       d="m 45.728592,272.8427 c 17.479728,-12.98131 39.088303,-20.3575 60.843638,-20.3575 21.33791,0 39.25141,4.69826 59.44163,20.02088 -0.81331,-3.54132 -1.35757,-14.54273 -1.53413,-18.53384 -17.8705,-10.3666 -37.57968,-16.25123 -57.86491,-16.25123 -20.510068,0 -41.145267,6.20574 -59.658004,16.7848 -0.385327,4.11925 -1.215221,18.28201 -1.215221,18.28201 z"
       id="path72" />
    <path
       fill="#ffffff"
       stroke="#20201e"
       stroke-width="4.11422"
       d="m 204.7731,60.053234 c -4.32142,-3.941387 -9.87285,-1.663295 -12.39691,5.094028 -2.16798,5.790116 -1.39515,12.97202 1.58903,17.39487 -12.3477,23.372308 -34.88541,66.014518 -40.32432,76.358928 -1.59779,-1.11411 -3.25345,-2.17189 -4.9756,-3.15945 0.48912,-7.9326 4.0579,-68.462976 5.95094,-100.657909 4.11303,0.146789 7.9078,-4.106304 8.9816,-10.59023 1.25329,-7.5729 -1.65565,-15.297762 -6.50678,-17.256919 -4.84239,-1.959433 -9.78899,2.587632 -11.04538,10.156084 -1.07671,6.48615 0.91752,13.080779 4.56183,16.066025 -8.92942,31.64825 -26.25567,93.067329 -26.2989,93.321879 -0.006,0.0612 -0.003,0.12454 -0.0113,0.18737 -1.57456,-0.29136 -3.19282,-0.55158 -4.84241,-0.76387 -0.32722,-3.40571 -7.75715,-74.604666 -11.62987,-111.68723 4.4519,-1.627097 7.76573,-7.848745 7.76573,-15.297765 0,-8.682894 -4.50662,-15.7314615 -10.06989,-15.7314615 -5.563298,0 -10.072673,7.0490135 -10.072673,15.7314615 0,7.448852 3.322889,13.670389 7.771763,15.297765 -3.855542,36.916313 -11.23915,107.63275 -11.62683,111.62707 -1.722251,0.21685 -3.406814,0.47263 -5.050885,0.77516 -0.01121,-0.0906 -0.008,-0.16736 -0.02592,-0.24855 -0.04049,-0.25521 -17.369878,-61.682245 -26.293354,-93.326545 3.638295,-2.983189 5.6297,-9.57515 4.555897,-16.066024 -1.253367,-7.568341 -6.202979,-12.11563 -11.048099,-10.156085 -4.845123,1.959712 -7.757156,9.684019 -6.501054,17.249969 1.076732,6.492654 4.865575,10.741469 8.978595,10.592454 1.892951,32.158903 5.450329,92.562901 5.951062,100.620821 -1.690421,0.96276 -3.316952,1.99107 -4.885741,3.07355 C 51.613988,147.91015 29.332482,105.73784 17.073025,82.545125 20.062967,78.122443 20.833043,70.940429 18.670734,65.150256 16.149672,58.392823 10.595144,56.11473 6.2708094,60.056284 1.9493954,63.995282 0.48753839,72.664441 3.008695,79.421764 c 2.1679602,5.785446 6.5559807,8.273604 10.489623,6.38434 7.372219,29.982626 31.168724,126.479566 32.078607,127.812526 16.402994,-10.42496 35.264873,-16.76667 59.705515,-16.76667 24.42921,0 43.28525,6.33436 59.69061,16.75744 0.90309,-1.33567 25.0138,-97.03846 32.57661,-127.803296 3.93633,1.889264 8.32144,-0.598894 10.48669,-6.38434 2.43043,-6.752763 0.97799,-15.421812 -3.34926,-19.360532 z"
       id="path74" />
    <polygon
       points="517.4178,63.6578 508.4514,59.1903 499.5166,63.6578 508.4514,68.1252 "
       id="polygon76"
       transform="matrix(0.9421001,0,0,1.4711508,-373.41221,124.5314)" />
    <polygon
       points="480.6085,66.5522 471.0759,63.5948 462.959,69.4466 472.4917,72.4039 "
       id="polygon78"
       transform="matrix(0.9421001,0,0,1.4711508,-373.41221,124.5314)" />
    <polygon
       points="536.3259,66.6151 545.8585,63.6263 553.9753,69.478 544.4427,72.4668 "
       id="polygon80"
       transform="matrix(0.9421001,0,0,1.4711508,-373.41221,124.5314)" />
  </g>
</svg>
