<?xml version="1.0" encoding="UTF-8" standalone="no"?>
<svg
   xmlns:dc="http://purl.org/dc/elements/1.1/"
   xmlns:cc="http://creativecommons.org/ns#"
   xmlns:rdf="http://www.w3.org/1999/02/22-rdf-syntax-ns#"
   xmlns:svg="http://www.w3.org/2000/svg"
   xmlns="http://www.w3.org/2000/svg"
   xmlns:sodipodi="http://sodipodi.sourceforge.net/DTD/sodipodi-0.dtd"
   xmlns:inkscape="http://www.inkscape.org/namespaces/inkscape"
   width="210mm"
   height="297mm"
   viewBox="0 0 210 297"
   version="1.1"
   id="svg7320"
   inkscape:version="1.0.1 (3bc2e813f5, 2020-09-07)"
   sodipodi:docname="wh-sold.svg">
  <defs
     id="defs7314" />
  <sodipodi:namedview
     id="base"
     pagecolor="#ffffff"
     bordercolor="#666666"
     borderopacity="1.0"
     inkscape:pageopacity="0.0"
     inkscape:pageshadow="2"
     inkscape:zoom="0.35"
     inkscape:cx="400"
     inkscape:cy="560"
     inkscape:document-units="mm"
     inkscape:current-layer="layer1"
     inkscape:document-rotation="0"
     showgrid="false"
     inkscape:window-width="1267"
     inkscape:window-height="860"
     inkscape:window-x="100"
     inkscape:window-y="0"
     inkscape:window-maximized="0" />
  <metadata
     id="metadata7317">
    <rdf:RDF>
      <cc:Work
         rdf:about="">
        <dc:format>image/svg+xml</dc:format>
        <dc:type
           rdf:resource="http://purl.org/dc/dcmitype/StillImage" />
        <dc:title />
      </cc:Work>
    </rdf:RDF>
  </metadata>
  <g
     inkscape:label="Layer 1"
     inkscape:groupmode="layer"
     id="layer1">
    <path
       fill="#ffffff"
       stroke="#000000"
       stroke-width="5.40831"
       stroke-linejoin="round"
       d="m 144.21079,253.01966 c -18.69301,-35.40629 -16.80418,-98.46762 -15.24145,-122.89671 29.5633,-1.93419 50.82517,-7.27745 50.82517,-13.57236 0,-6.17877 -20.46523,-11.44507 -49.17163,-13.46284 18.3327,-9.01168 30.87758,-27.237152 30.87758,-48.26846 0,-29.977324 -25.46447,-54.27947618 -56.8917,-54.27947618 -31.427228,0 -56.891706,24.30260518 -56.891706,54.27947618 0,21.030856 12.539651,39.256312 30.877431,48.26846 -28.701665,2.01777 -49.176226,7.28407 -49.176226,13.46284 0,6.29491 21.273286,11.63817 50.830229,13.57236 1.5675,24.43002 3.456161,87.49197 -15.236695,122.89671 -36.636581,7.02618 -62.345059,23.51729 -62.345059,42.73197 H 206.54571 c 0,-19.21222 -25.67189,-35.71381 -62.31006,-42.7521 z"
       id="path212" />
  </g>
</svg>
